HIERARCHY
ROOT Hips
{
    OFFSET 0.000000 0.000000 0.000000
    CHANNELS 6 Xposition Yposition Zposition Zrotation Xrotation Yrotation
    JOINT Spine
    {
        OFFSET -0.000000 14.517291 0.000000
        CHANNELS 3 Zrotation Xrotation Yrotation
        JOINT Spine1
        {
            OFFSET -0.000000 37.558300 0.000000
            CHANNELS 3 Zrotation Xrotation Yrotation
            JOINT Neck
            {
                OFFSET -0.000000 37.404057 3.400369
                CHANNELS 3 Zrotation Xrotation Yrotation
                JOINT Head
                {
                    OFFSET -0.000000 24.785618 -3.540803
                    CHANNELS 3 Zrotation Xrotation Yrotation
                    End Site
                    {
                        OFFSET -0.000000 35.408028 0.000000
                    }
                }
            }
            JOINT LeftShoulder
            {
                OFFSET 6.992933 33.973492 -0.192664
                CHANNELS 3 Zrotation Xrotation Yrotation
                JOINT LeftArm
                {
                    OFFSET 21.527611 0.000000 0.000000
                    CHANNELS 3 Zrotation Xrotation Yrotation
                    JOINT LeftForeArm
                    {
                        OFFSET 56.353916 0.000000 0.000000
                        CHANNELS 3 Zrotation Xrotation Yrotation
                        JOINT LeftHand
                        {
                            OFFSET 47.774071 0.000000 0.000000
                            CHANNELS 3 Zrotation Xrotation Yrotation
                            End Site
                            {
                                OFFSET 26.556021 0.000000 0.000000
                            }
                        }
                    }
                }
            }
            JOINT RightShoulder
            {
                OFFSET -7.065357 33.973492 -0.192664
                CHANNELS 3 Zrotation Xrotation Yrotation
                JOINT RightArm
                {
                    OFFSET -21.527611 0.000000 0.000000
                    CHANNELS 3 Zrotation Xrotation Yrotation
                    JOINT RightForeArm
                    {
                        OFFSET -56.353916 0.000000 0.000000
                        CHANNELS 3 Zrotation Xrotation Yrotation
                        JOINT RightHand
                        {
                            OFFSET -47.774071 0.000000 0.000000
                            CHANNELS 3 Zrotation Xrotation Yrotation
                            End Site
                            {
                                OFFSET -26.556021 0.000000 0.000000
                            }
                        }
                    }
                }
            }
        }
    }
    JOINT LeftUpLeg
    {
        OFFSET 17.704014 0.000000 0.000000
        CHANNELS 3 Zrotation Xrotation Yrotation
        JOINT LeftLeg
        {
            OFFSET -0.000000 -81.181816 0.000000
            CHANNELS 3 Zrotation Xrotation Yrotation
            JOINT LeftFoot
            {
                OFFSET -0.000000 -62.821102 0.000000
                CHANNELS 3 Zrotation Xrotation Yrotation
                JOINT LeftToeBase
                {
                    OFFSET -0.000000 -11.507608 26.556021
                    CHANNELS 3 Zrotation Xrotation Yrotation
                    End Site
                    {
                        OFFSET -0.000000 0.000000 7.081605
                    }
                }
            }
        }
    }
    JOINT RightUpLeg
    {
        OFFSET -17.704014 0.000000 0.000000
        CHANNELS 3 Zrotation Xrotation Yrotation
        JOINT RightLeg
        {
            OFFSET -0.000000 -81.181816 0.000000
            CHANNELS 3 Zrotation Xrotation Yrotation
            JOINT RightFoot
            {
                OFFSET -0.000000 -62.821102 0.000000
                CHANNELS 3 Zrotation Xrotation Yrotation
                JOINT RightToeBase
                {
                    OFFSET -0.000000 -11.507608 26.556021
                    CHANNELS 3 Zrotation Xrotation Yrotation
                    End Site
                    {
                        OFFSET -0.000000 0.000000 7.081605
                    }
                }
            }
        }
    }
}
MOTION
Frames:    9
Frame Time:    0.008333
-9.234287    151.120102    -11.817609    -0.330499    0.213747    26.857632    0.854536    2.870318    14.592919    -7.534691    -0.328301    4.850909    -0.136775    0.252920    -11.862573    13.439517    0.650163    -10.512747    1.508220    1.755926    -7.214519    -41.595375    19.147081    -47.151745    -11.858424    -14.695611    -132.214157    2.701779    -38.974426    -6.293506    -12.997347    1.545084    10.994345    26.215176    -18.067249    72.179840    2.697441    -30.310282    13.915046    19.016426    -24.546274    39.120457    -0.602121    -34.811077    -30.761950    -11.248672    23.535536    -22.197233    -10.305972    3.038899    29.140844    0.000000    0.000000    0.000000    5.438106    12.104939    -16.834621    2.677505    24.435745    -1.019843    -3.115997    -31.081730    -6.358474    0.000000    0.000000    0.000000    
-9.184915    151.129532    -11.835287    -0.339012    0.221796    26.836735    0.838548    2.858986    14.568541    -7.519508    -0.338898    4.841959    -0.128149    0.255748    -11.883963    13.417520    0.610071    -10.534758    1.515962    1.730052    -7.225113    -41.616463    19.147425    -47.102856    -11.858255    -14.684621    -132.218826    2.688457    -38.967117    -6.296323    -12.965682    1.546409    10.921717    26.005405    -18.103827    71.719131    2.588833    -30.398767    13.871600    19.045647    -24.607973    39.171722    -0.590854    -34.797970    -30.768518    -11.258894    23.484123    -22.165464    -10.307942    3.051649    29.137478    0.000000    0.000000    0.000000    5.421878    12.101684    -16.817787    2.668859    24.421293    -0.986286    -3.112115    -31.070093    -6.389578    0.000000    0.000000    0.000000    
-9.133419    151.142090    -11.859779    -0.341603    0.231548    26.815384    0.798047    2.859319    14.556166    -7.452369    -0.434711    4.831422    -0.139815    0.421731    -11.896017    13.389241    0.480645    -10.534734    1.464875    1.797694    -7.316491    -41.612148    19.085260    -47.021523    -11.871187    -14.691002    -132.205887    2.666139    -38.988884    -6.288324    -12.949844    1.602064    10.947428    25.746330    -18.144053    71.155006    2.448088    -30.461264    13.783537    19.106089    -24.634491    39.182838    -0.589768    -34.787090    -30.760920    -11.257785    23.443722    -22.155411    -10.307429    3.068773    29.131115    0.000000    0.000000    0.000000    5.394916    12.093606    -16.802486    2.660701    24.415859    -0.965507    -3.111006    -31.056217    -6.395101    0.000000    0.000000    0.000000    
-9.087128    151.158051    -11.884163    -0.351138    0.240767    26.798176    0.767176    2.858973    14.527670    -7.412549    -0.458073    4.820304    -0.132751    0.433822    -11.902687    13.360579    0.417899    -10.539454    1.462108    1.800602    -7.303295    -41.624744    19.074850    -47.002625    -11.878329    -14.666557    -132.197739    2.717429    -38.980217    -6.264998    -12.922812    1.595859    10.886964    25.627632    -18.262995    70.699661    2.432924    -30.406605    13.714324    19.034864    -24.597610    39.182682    -0.578584    -34.771385    -30.752138    -11.256676    23.382351    -22.121000    -10.334080    3.083424    29.120022    0.000000    0.000000    0.000000    5.374413    12.080973    -16.774649    2.664179    24.409830    -0.981415    -3.071714    -31.042370    -6.378868    0.000000    0.000000    0.000000    
-9.039068    151.178070    -11.913789    -0.362205    0.254891    26.778072    0.735327    2.859964    14.504827    -7.365465    -0.483905    4.810964    -0.112114    0.437166    -11.898400    13.302436    0.346592    -10.537789    1.452126    1.803833    -7.298234    -41.633354    19.063959    -46.974239    -11.893799    -14.652126    -132.197327    2.773542    -38.998985    -6.228884    -12.905374    1.582057    10.803977    25.379475    -18.277210    70.216408    2.325059    -30.473686    13.637370    19.008465    -24.659170    39.210423    -0.568903    -34.759289    -30.742756    -11.255672    23.317848    -22.087210    -10.342346    3.110224    29.111742    0.000000    0.000000    0.000000    5.350292    12.057842    -16.754967    2.661893    24.412851    -0.945659    -3.080170    -31.010698    -6.412548    0.000000    0.000000    0.000000    
-8.991400    151.200790    -11.949746    -0.374649    0.272805    26.758999    0.705451    2.868795    14.477408    -7.333192    -0.517764    4.799551    -0.118413    0.444097    -11.892281    13.311469    0.275707    -10.521064    1.454940    1.813304    -7.274044    -41.632145    19.067844    -46.969910    -11.885130    -14.676414    -132.185425    2.711150    -38.993565    -6.254429    -12.872851    1.581059    10.723501    25.163815    -18.313650    69.765091    2.213790    -30.543320    13.512015    18.917835    -24.745993    39.225025    -0.565672    -34.750511    -30.728111    -11.229671    23.253798    -22.110847    -10.388890    3.129206    29.135828    0.000000    0.000000    0.000000    5.325328    12.030858    -16.731630    2.665125    24.408669    -0.968047    -3.014520    -30.987768    -6.379224    0.000000    0.000000    0.000000    
-8.947134    151.224487    -11.991970    -0.386947    0.294215    26.744541    0.680053    2.882648    14.445210    -7.328089    -0.552407    4.786456    -0.045947    0.429119    -11.874342    13.229064    0.210754    -10.516866    1.483520    1.826801    -7.252059    -41.657364    19.043123    -46.964478    -11.874068    -14.681723    -132.152573    2.542248    -38.954533    -6.344579    -12.801036    1.556703    10.643318    24.951555    -18.329185    69.294579    2.071576    -30.556784    13.392589    18.920055    -24.745319    39.206631    -0.569313    -34.742058    -30.707613    -11.200413    23.181858    -22.095144    -10.418725    3.170054    29.118965    0.000000    0.000000    0.000000    5.295918    11.998522    -16.695559    2.684865    24.404310    -0.941779    -3.027862    -30.953207    -6.443529    0.000000    0.000000    0.000000    
-8.904830    151.247986    -12.027841    -0.398085    0.309695    26.730227    0.649741    2.894340    14.416065    -7.315810    -0.580955    4.774732    -0.001448    0.434650    -11.861890    13.204481    0.132816    -10.504852    1.514812    1.834868    -7.249526    -41.685860    19.040972    -46.941631    -11.952342    -14.523950    -132.189453    3.057058    -39.010361    -6.070125    -12.724677    1.525836    10.565778    24.839060    -18.491938    68.869667    2.128432    -30.512592    13.209383    18.908951    -24.698210    39.248081    -0.562533    -34.723503    -30.699448    -11.179766    23.097244    -22.075979    -10.452444    3.207465    29.109856    0.000000    0.000000    0.000000    5.271991    11.977129    -16.673105    2.692326    24.390802    -0.975198    -3.005007    -30.917971    -6.398562    0.000000    0.000000    0.000000    
-8.865185    151.272446    -12.068886    -0.408037    0.323679    26.718481    0.619715    2.919779    14.383212    -7.291491    -0.626984    4.760768    0.014909    0.462696    -11.854799    13.189047    0.047836    -10.492290    1.517321    1.849430    -7.244062    -41.698235    19.031408    -46.913631    -11.956924    -14.517282    -132.174240    3.062214    -39.005592    -6.065401    -12.683468    1.540813    10.472011    24.558638    -18.441069    68.408432    1.811012    -30.550629    13.010468    19.139868    -24.633911    39.195850    -0.559872    -34.702579    -30.679441    -11.145931    23.010479    -22.097761    -10.501989    3.240816    29.124268    0.000000    0.000000    0.000000    5.248189    11.958806    -16.636866    2.716340    24.373741    -0.993461    -2.983301    -30.895813    -6.418314    0.000000    0.000000    0.000000    
